<svg width="256" height="256" viewBox="0 0 256 256" xmlns="http://www.w3.org/2000/svg">
  <defs>
    <linearGradient id="tileg" x1="0" y1="0" x2="0" y2="1">
      <stop offset="0" stop-color="#39495F"/>
      <stop offset="1" stop-color="#1A2430"/>
    </linearGradient>
  </defs>
  <rect x="6" y="6" width="244" height="244" rx="56" fill="url(#tileg)"/>
  <g transform="rotate(-7 128 128)">
    <rect x="76" y="54" width="104" height="150" rx="11" fill="#FFFFFF"/>
    <rect x="92" y="76" width="52" height="6" rx="3" fill="#D2D9E0"/>
    <rect x="92" y="91" width="68" height="6" rx="3" fill="#D2D9E0"/>
  </g>
  <g transform="rotate(-41 128 130)">
    <rect x="60" y="151" width="100" height="15" rx="7.5" fill="#243140"/>
    <rect x="65" y="154" width="48" height="3.2" rx="1.6" fill="#48596E"/>
    <circle cx="158" cy="158.5" r="3.4" fill="#1A2330"/>
    <path d="M160 144 L220 158 Q197 174 160 169 Z" fill="#AEBAC7"/>
    <path d="M160 144 L220 158 L160 165 Z" fill="#D0D9E2"/>
    <path d="M220 158 Q197 174 160 169" fill="none" stroke="#E11D38" stroke-width="6.5" stroke-linecap="round"/>
  </g>
</svg>
